{
    "accessors" : [
        {
            "bufferView" : 0,
            "componentType" : 5123,
            "count" : 11904,
            "max" : [
                1985
            ],
            "min" : [
                0
            ],
            "type" : "SCALAR"
        },
        {
            "bufferView" : 1,
            "componentType" : 5126,
            "count" : 1986,
            "max" : [
                1.0000014305114746,
                1.0,
                1.0000004768371582
            ],
            "min" : [
                -1.0,
                -1.0,
                -1.0000007152557373
            ],
            "type" : "VEC3"
        },
        {
            "bufferView" : 2,
            "componentType" : 5126,
            "count" : 1986,
            "max" : [
                1.0,
                1.0,
                1.0
            ],
            "min" : [
                -1.0,
                -0.999969482421875,
                -1.0
            ],
            "type" : "VEC3"
        },
        {
            "bufferView" : 3,
            "componentType" : 5123,
            "count" : 11904,
            "max" : [
                1985
            ],
            "min" : [
                0
            ],
            "type" : "SCALAR"
        },
        {
            "bufferView" : 4,
            "componentType" : 5126,
            "count" : 1986,
            "max" : [
                1.0000014305114746,
                1.0,
                1.0000004768371582
            ],
            "min" : [
                -1.0,
                -1.0,
                -1.0000007152557373
            ],
            "type" : "VEC3"
        },
        {
            "bufferView" : 5,
            "componentType" : 5126,
            "count" : 1986,
            "max" : [
                1.0,
                1.0,
                1.0
            ],
            "min" : [
                -1.0,
                -0.999969482421875,
                -1.0
            ],
            "type" : "VEC3"
        },
        {
            "bufferView" : 6,
            "componentType" : 5123,
            "count" : 11904,
            "max" : [
                1985
            ],
            "min" : [
                0
            ],
            "type" : "SCALAR"
        },
        {
            "bufferView" : 7,
            "componentType" : 5126,
            "count" : 1986,
            "max" : [
                1.0000014305114746,
                1.0,
                1.0000004768371582
            ],
            "min" : [
                -1.0,
                -1.0,
                -1.0000007152557373
            ],
            "type" : "VEC3"
        },
        {
            "bufferView" : 8,
            "componentType" : 5126,
            "count" : 1986,
            "max" : [
                1.0,
                1.0,
                1.0
            ],
            "min" : [
                -1.0,
                -0.999969482421875,
                -1.0
            ],
            "type" : "VEC3"
        }
    ],
    "asset" : {
        "generator" : "Khronos Blender glTF 2.0 exporter",
        "version" : "2.0"
    },
    "bufferViews" : [
        {
            "buffer" : 0,
            "byteLength" : 23808,
            "byteOffset" : 0,
            "target" : 34963
        },
        {
            "buffer" : 0,
            "byteLength" : 23832,
            "byteOffset" : 23808,
            "target" : 34962
        },
        {
            "buffer" : 0,
            "byteLength" : 23832,
            "byteOffset" : 47640,
            "target" : 34962
        },
        {
            "buffer" : 0,
            "byteLength" : 23808,
            "byteOffset" : 71472,
            "target" : 34963
        },
        {
            "buffer" : 0,
            "byteLength" : 23832,
            "byteOffset" : 95280,
            "target" : 34962
        },
        {
            "buffer" : 0,
            "byteLength" : 23832,
            "byteOffset" : 119112,
            "target" : 34962
        },
        {
            "buffer" : 0,
            "byteLength" : 23808,
            "byteOffset" : 142944,
            "target" : 34963
        },
        {
            "buffer" : 0,
            "byteLength" : 23832,
            "byteOffset" : 166752,
            "target" : 34962
        },
        {
            "buffer" : 0,
            "byteLength" : 23832,
            "byteOffset" : 190584,
            "target" : 34962
        }
    ],
    "buffers" : [
        {
            "byteLength" : 214416,
            "uri" : "earth2.bin"
        }
    ],
    "images" : [
        {
            "name" : "Clouds",
            "uri" : "Clouds.png"
        }
    ],
    "materials" : [
        {
            "alphaMode" : "BLEND",
            "name" : "atmosfere",
            "pbrMetallicRoughness" : {
                "baseColorFactor" : [
                    0.0,
                    0.20000000298023224,
                    0.6400000190734865,
                    0.699999988079071
                ],
                "metallicFactor" : 0.0
            }
        },
        {
            "alphaMode" : "BLEND",
            "name" : "clouds",
            "pbrMetallicRoughness" : {
                "baseColorFactor" : [
                    0.6400000190734865,
                    0.6400000190734865,
                    0.6400000190734865,
                    0.0
                ],
                "baseColorTexture" : {
                    "index" : 0
                },
                "metallicFactor" : 0.0
            }
        }
    ],
    "meshes" : [
        {
            "name" : "Sphere.001",
            "primitives" : [
                {
                    "attributes" : {
                        "NORMAL" : 2,
                        "POSITION" : 1
                    },
                    "indices" : 0,
                    "material" : 1
                }
            ]
        },
        {
            "name" : "Sphere.002",
            "primitives" : [
                {
                    "attributes" : {
                        "NORMAL" : 5,
                        "POSITION" : 4
                    },
                    "indices" : 3,
                    "material" : 0
                }
            ]
        },
        {
            "name" : "Sphere",
            "primitives" : [
                {
                    "attributes" : {
                        "NORMAL" : 8,
                        "POSITION" : 7
                    },
                    "indices" : 6
                }
            ]
        }
    ],
    "nodes" : [
        {
            "name" : "Camera",
            "rotation" : [
                0.70710688829422,
                0.0,
                -0.0,
                0.7071067094802856
            ],
            "scale" : [
                1.0,
                1.0000001192092896,
                1.0000001192092896
            ],
            "translation" : [
                0.0,
                -4.683636518620915e-07,
                3.4859161376953125
            ]
        },
        {
            "name" : "Lamp",
            "rotation" : [
                0.3780367076396942,
                0.3210833966732025,
                -0.32934755086898804,
                0.8034451603889465
            ],
            "scale" : [
                1.0,
                1.0,
                0.9999999403953552
            ],
            "translation" : [
                1.357495665550232,
                3.315999984741211,
                2.6439366340637207
            ]
        },
        {
            "mesh" : 2,
            "name" : "Sphere",
            "rotation" : [
                0.0,
                0.9220091104507446,
                -0.0,
                0.38716819882392883
            ]
        },
        {
            "mesh" : 0,
            "name" : "Sphere.001",
            "rotation" : [
                0.0,
                0.9220091104507446,
                -0.0,
                0.38716819882392883
            ],
            "scale" : [
                1.0119999647140503,
                1.0119999647140503,
                1.0119999647140503
            ]
        },
        {
            "mesh" : 1,
            "name" : "Sphere.002",
            "rotation" : [
                0.0,
                0.9220091700553894,
                -0.0,
                0.38716819882392883
            ],
            "scale" : [
                1.0169999599456787,
                1.0169999599456787,
                1.0169999599456787
            ]
        }
    ],
    "samplers" : [
        {}
    ],
    "scene" : 0,
    "scenes" : [
        {
            "name" : "Scene",
            "nodes" : [
                4,
                3,
                2,
                1,
                0
            ]
        }
    ],
    "textures" : [
        {
            "sampler" : 0,
            "source" : 0
        }
    ]
}
